<svg width="20" height="20" viewBox="0 0 20 20" fill="none" xmlns="http://www.w3.org/2000/svg">
<g id="Group 70">
<path id="Vector" d="M19.3832 0.128326C19.6858 0.247631 19.8634 0.466746 19.9159 0.785669C19.9659 1.08859 19.9914 1.42672 19.9926 1.80005C20.0019 4.68812 20.0024 7.57618 19.9939 10.4642C19.9927 10.8021 19.9737 11.0312 19.9369 11.1517C19.8423 11.4603 19.7381 11.5694 19.4157 11.3795L19.1651 11.191L16.472 8.52887C16.471 8.52786 16.4698 8.52705 16.4685 8.5265C16.4672 8.52595 16.4658 8.52566 16.4644 8.52566C16.463 8.52566 16.4616 8.52595 16.4602 8.5265C16.4589 8.52705 16.4577 8.52786 16.4566 8.52887L16.0659 8.91996L15.789 9.19233L15.2875 9.69123L14.983 9.99589L14.4043 10.5751L14.1752 10.8047L13.6062 11.373L13.3311 11.6445L12.8374 12.1355L12.5286 12.4393C12.3356 12.6491 12.1306 12.8313 11.9136 12.9858L11.7427 13.0866C11.512 13.1963 11.2879 13.2702 11.0703 13.3084C10.3502 13.4053 9.72595 13.2157 9.19766 12.7396L7.16728 10.7122C6.75113 10.1829 6.5946 9.58472 6.69769 8.91778C6.77713 8.47722 6.97775 8.0937 7.29958 7.76721C7.39974 7.66536 7.5113 7.54999 7.63425 7.42108L7.73412 7.32418L8.43983 6.62275L8.53532 6.52149L9.28439 5.77554L9.42763 5.64154L10.0637 5.00471L10.2262 4.84147L10.91 4.15488L11.4852 3.58134C11.4885 3.57795 11.4903 3.57343 11.4903 3.56877C11.4903 3.56412 11.4885 3.55969 11.4852 3.55646C10.7081 2.78156 9.92979 2.00753 9.15035 1.23437C8.89934 0.985578 8.68426 0.763845 8.53488 0.45918C8.5159 0.390798 8.51678 0.322852 8.53751 0.255342C8.71361 0.0104756 9.23752 0.00742019 9.49159 0.00698371C12.3439 0.00116394 15.1962 -0.00101846 18.0485 0.000436484C18.4769 0.000872967 18.9706 0.010912 19.3832 0.128326Z" fill="#333333"/>
<path id="Vector_2" d="M5.87861 6.37861L5.14144 6.37905C4.42579 6.37439 3.97603 6.37482 3.79215 6.38036C3.16558 6.3996 2.61485 6.77435 2.42254 7.35506C2.38101 7.48071 2.35694 7.66189 2.35031 7.8986C2.34249 8.17846 2.34535 8.48412 2.35889 8.81558C2.37108 9.10724 2.34399 9.44482 2.34851 9.7343C2.36521 10.7746 2.34941 11.7615 2.34941 12.8582C2.34941 13.7236 2.34986 14.5894 2.35663 15.4548C2.35844 15.7338 2.31826 16.2056 2.37108 16.5336C2.46136 17.0946 2.92407 17.5909 3.49827 17.6911C3.75197 17.7352 4.10182 17.7204 4.33159 17.7221C5.0656 17.7287 5.78652 17.7164 6.53407 17.7212C6.79499 17.723 7.05591 17.7225 7.31683 17.7199C8.49278 17.7086 9.6773 17.7304 10.8447 17.7208C11.4627 17.716 12.2242 17.7545 12.8427 17.7051C12.9459 17.6969 13.0765 17.6533 13.2345 17.5743C13.6224 17.381 13.8743 17.0993 13.9902 16.729C14.0371 16.5795 14.0606 16.3161 14.0606 15.9389C14.0606 15.2296 14.0606 14.5211 14.0606 13.8133C14.0606 13.7971 14.0639 13.781 14.0703 13.7661C14.0767 13.7511 14.0862 13.7376 14.098 13.7262L16.366 11.5298C16.3955 11.5012 16.4101 11.507 16.4098 11.5473L16.38 16.7334C16.3532 16.9585 16.2993 17.2001 16.2184 17.4584C15.9481 18.2537 15.4496 18.8915 14.7228 19.372C14.0914 19.7891 13.3782 19.998 12.5831 19.9986C9.63773 20.0001 6.69222 19.9998 3.74655 19.9977C3.37759 19.9974 2.98862 19.9326 2.57964 19.8031C2.29675 19.7063 2.02304 19.5785 1.7585 19.4196C1.54724 19.2876 1.34109 19.1283 1.14006 18.9417L0.945949 18.7414L0.587071 18.2836C0.197345 17.6728 0.00218186 17.0057 0.00157997 16.2821C-0.000526656 13.4655 -0.000526656 10.6487 0.00157997 7.8317C0.00218186 7.24166 0.132191 6.68413 0.391606 6.1591C0.882449 5.24081 1.63421 4.61375 2.6469 4.27792L3.29107 4.13886C3.5228 4.11583 3.68591 4.10417 3.78041 4.10388C5.44735 4.10184 7.11715 4.10213 8.78981 4.10475C8.79149 4.10475 8.79315 4.10508 8.79469 4.10573C8.79623 4.10637 8.79762 4.10732 8.79876 4.10851C8.79991 4.1097 8.80079 4.11111 8.80134 4.11265C8.8019 4.11418 8.80212 4.11581 8.802 4.11743C8.80079 4.13084 8.79508 4.1425 8.78484 4.15242C8.02646 4.88297 7.27109 5.61483 6.51872 6.348C6.49936 6.36678 6.47294 6.37745 6.44514 6.37774L5.87861 6.37861Z" fill="#333333"/>
</g>
</svg>
