<svg width="55" height="55" viewBox="0 0 55 55" fill="none" xmlns="http://www.w3.org/2000/svg">
<g id="check-square-svgrepo-com 1">
<path id="Vector" fill-rule="evenodd" clip-rule="evenodd" d="M16.6148 5.47176C19.591 4.81034 23.2016 4.58301 27.5 4.58301C31.7985 4.58301 35.409 4.81034 38.3852 5.47176C41.3875 6.13898 43.8827 7.27801 45.8022 9.19746C47.7217 11.1169 48.8607 13.6122 49.528 16.6144C50.1894 19.5906 50.4167 23.2012 50.4167 27.4997C50.4167 31.7982 50.1894 35.4087 49.528 38.3849C48.8607 41.3872 47.7217 43.8823 45.8022 45.8018C43.8827 47.7213 41.3875 48.8603 38.3852 49.5276C35.409 50.189 31.7985 50.4163 27.5 50.4163C23.2016 50.4163 19.591 50.189 16.6148 49.5276C13.6126 48.8603 11.1173 47.7213 9.19783 45.8018C7.27837 43.8823 6.13935 41.3872 5.47213 38.3849C4.81071 35.4087 4.58337 31.7982 4.58337 27.4997C4.58337 23.2012 4.81071 19.5906 5.47213 16.6144C6.13935 13.6122 7.27837 11.1169 9.19783 9.19746C11.1173 7.27801 13.6126 6.13898 16.6148 5.47176ZM35.9955 21.2959C36.8904 22.1908 36.8904 23.6419 35.9955 24.5368L27.5557 32.9765C26.2593 34.2729 24.1574 34.2729 22.861 32.9765L19.0046 29.1201C18.1096 28.2252 18.1096 26.7741 19.0046 25.8792C19.8995 24.9843 21.3505 24.9843 22.2455 25.8792L25.2084 28.8421L32.7546 21.2959C33.6495 20.4009 35.1006 20.4009 35.9955 21.2959Z" fill="#D60926"/>
</g>
</svg>
