<svg width="24" height="24" viewBox="0 0 24 24" fill="none" xmlns="http://www.w3.org/2000/svg">
<g id="facebook-svgrepo-com 1">
<g id="7935ec95c421cee6d86eb22ecd11b7e3">
<path id="Vector" d="M13.0612 6.76219C13.0612 6.96728 13.0612 7.63573 13.0612 8.5854H16.3263L15.9723 11.496H13.0612C13.0612 15.9848 13.0612 22 13.0612 22H9.19714C9.19714 22 9.19714 16.0644 9.19714 11.496H7.18372V8.5854H9.19714C9.19714 7.43111 9.19714 6.61033 9.19714 6.3818C9.19714 5.29295 9.1151 4.77632 9.57777 3.93256C10.0407 3.08884 11.3463 1.97362 13.6046 2.00047C15.8634 2.0283 16.8156 2.2456 16.8156 2.2456L16.3263 5.34763C16.3263 5.34763 14.8839 4.96677 14.1759 5.1025C13.4689 5.23828 13.0612 5.67381 13.0612 6.76219Z" fill="white"/>
</g>
</g>
</svg>
