<svg width="234" height="30" viewBox="0 0 234 30" fill="none" xmlns="http://www.w3.org/2000/svg">
<g id="logo (8) 1" clip-path="url(#clip0_140_1214)">
<path id="Vector" d="M25.5144 21.8113L26.5766 21.193L25.5144 21.8113ZM140.644 22.9284L141.717 22.321L140.644 22.9284ZM43.7886 15.2169L42.7264 14.5987L43.7886 15.2169ZM52.2212 23.8395L51.1481 23.2212L52.2212 23.8395ZM120.191 4.62036V5.84596V4.62036ZM103.749 5.84596V4.62036V5.84596Z" fill="#D60926"/>
<path id="Vector_2" d="M165.779 0.32538H161.357V13.1562H165.779C169.833 13.1562 171.784 11.6594 171.784 6.69197C171.784 1.71367 169.811 0.314534 165.779 0.314534V0.32538ZM165.671 11.551H163.221V1.91974H165.671C168.727 1.91974 169.79 2.58135 169.79 6.71367C169.79 10.6291 168.727 11.551 165.671 11.551ZM180.878 7.50542C183.566 7.46204 184.411 5.85683 184.411 4.0564C184.411 2.0282 183.598 0.314534 180.813 0.314534H174.613V13.1562H176.477V7.91757H178.569C179.469 7.91757 180.91 9.58785 182.937 13.1453H185.267C183.176 9.65293 181.777 7.80911 180.878 7.50542ZM176.477 6.3449V1.89805H180.52C181.68 1.89805 182.33 2.6898 182.33 4.18655C182.33 5.55314 181.669 6.3449 180.455 6.3449H176.477ZM189.191 13.1562H187.338V0.314534H189.191V13.1562ZM197.971 13.1562H195.543C194.242 8.95879 192.378 3.81779 190.795 0.314534H192.898C194.199 3.44902 195.781 7.75488 196.865 11.4208C198.361 7.84165 199.683 3.89371 200.789 0.314534H202.74C201.439 4.39262 199.705 9.09978 197.971 13.1562ZM206.392 13.1562H204.528V0.314534H206.381V13.1562H206.392ZM211.703 13.1562H209.861V0.314534H212.354C214.435 3.49241 216.472 6.98482 218.337 10.3796V0.314534H220.212V13.1562H217.936C215.981 9.5566 213.902 6.02592 211.703 2.5705V13.1562ZM228.969 13.4165C224.937 13.4165 223.03 11.8438 223.03 6.61605C223.03 1.36659 225.068 0 229.143 0C230.303 0 231.885 0.21692 232.871 0.488069L232.416 2.13666C231.679 1.86551 230.183 1.70282 229.251 1.70282C226.173 1.70282 225.057 2.3102 225.057 6.63774C225.057 10.9436 226.173 11.7137 229.197 11.7137C229.988 11.7137 230.823 11.5835 231.311 11.4751V7.51627H228.232V5.96529H233.207V12.9501C232.199 13.2538 230.281 13.4273 228.98 13.4273L228.969 13.4165ZM170.061 26.0954C170.061 28.9696 168.11 30 164.706 30C163.416 30 161.888 29.7831 160.88 29.4469L161.335 27.82C162.127 28.0803 163.525 28.2863 164.674 28.2863C166.82 28.2863 168.077 27.82 168.077 26.1822C168.077 25.0651 167.481 24.2516 164.977 24.0347C162.018 23.7961 160.653 22.9284 160.653 20.564C160.653 17.679 162.604 16.5944 165.974 16.5944C167.232 16.5944 168.695 16.8113 169.692 17.1258L169.259 18.7527C168.587 18.5033 167.156 18.2972 165.974 18.2972C163.818 18.2972 162.658 18.7852 162.658 20.4013C162.658 21.5293 163.265 22.115 165.693 22.321C168.717 22.5922 170.061 23.6985 170.061 26.0954ZM174.179 23.2213C174.179 27.5271 175.307 28.2646 178.331 28.2646C179.263 28.2646 180.531 28.102 181.268 27.8417L181.734 29.5228C180.737 29.8156 179.263 30 178.103 30C174.071 30 172.163 28.4273 172.163 23.1996C172.163 17.9501 174.071 16.5835 178.103 16.5835C179.263 16.5835 180.759 16.8004 181.734 17.0716L181.268 18.7419C180.531 18.4707 179.263 18.308 178.331 18.308C175.307 18.308 174.179 18.8937 174.179 23.2213ZM191.836 16.898H193.689V29.7397H191.836V23.7527H185.69V29.7397H183.826V16.898H185.69V22.039H191.836V16.898ZM202.458 16.5835C198.426 16.5835 196.496 18.0043 196.496 23.2321C196.496 28.5249 198.426 30 202.458 30C206.512 30 208.419 28.5249 208.419 23.2321C208.419 18.0043 206.49 16.5835 202.458 16.5835ZM202.458 28.3189C199.423 28.3189 198.523 27.4403 198.523 23.2755C198.523 18.9696 199.423 18.2429 202.458 18.2429C205.514 18.2429 206.436 18.9696 206.436 23.2755C206.436 27.4403 205.514 28.3189 202.458 28.3189ZM216.516 16.5944C212.484 16.5944 210.554 18.0152 210.554 23.243C210.554 28.5358 212.484 30.0108 216.516 30.0108C220.559 30.0108 222.477 28.5358 222.477 23.243C222.477 18.0152 220.537 16.5944 216.516 16.5944ZM216.516 28.3297C213.481 28.3297 212.57 27.4512 212.57 23.2863C212.57 18.9805 213.47 18.2538 216.505 18.2538C219.561 18.2538 220.483 18.9805 220.483 23.2863C220.483 27.4512 219.561 28.3297 216.505 28.3297H216.516ZM233.5 28.1128V29.7397H225.295V16.9089H227.149V28.1128H233.5Z" fill="white"/>
<path id="Vector_3" d="M110.415 0.325354H107.77C106.911 0.327291 106.068 0.554673 105.324 0.984796C104.58 1.41492 103.963 2.03273 103.532 2.77655L101.971 5.46635C101.787 5.79173 102.015 6.20388 102.405 6.20388H109.428V29.2516C109.428 29.5228 109.645 29.7397 109.916 29.7397H111.542C112.037 29.7411 112.527 29.6448 112.985 29.4563C113.442 29.2678 113.858 28.9908 114.209 28.6412C114.559 28.2916 114.837 27.8762 115.027 27.4189C115.216 26.9615 115.314 26.4713 115.314 25.9761V5.22774C115.314 2.51624 113.114 0.325354 110.415 0.325354ZM146.681 0.813423V23.8611H145.305L133.133 2.77655C132.266 1.25811 130.64 0.325354 128.895 0.325354H126.088C123.378 0.325354 121.189 2.51624 121.189 5.22774V29.2516C121.189 29.5228 121.405 29.7505 121.676 29.7505H123.302C123.798 29.7519 124.289 29.6553 124.747 29.4661C125.206 29.2769 125.622 28.999 125.972 28.6482C126.323 28.2974 126.601 27.8808 126.79 27.4222C126.979 26.9636 127.075 26.4722 127.074 25.9761V6.20388H128.331L140.492 27.2885C141.36 28.8069 142.985 29.7397 144.741 29.7397H147.668C150.377 29.7397 152.567 27.5488 152.567 24.8373V4.08891C152.567 3.09075 152.171 2.13348 151.465 1.42767C150.76 0.72187 149.803 0.325354 148.806 0.325354H147.18C146.909 0.325354 146.681 0.542273 146.681 0.813423ZM37.6324 2.75485C37.179 2.00409 36.5374 1.38493 35.7712 0.958775C35.005 0.532617 34.1408 0.31426 33.2643 0.325354H27.4656C26.6048 0.325393 25.7591 0.551875 25.0134 0.982092C24.2677 1.41231 23.6481 2.03114 23.2168 2.77655L21.6777 5.46635C21.4826 5.79173 21.721 6.20388 22.1004 6.20388H31.7144L21.5259 23.8611H20.0193L7.84736 2.77655C6.98026 1.25811 5.35444 0.325354 3.59856 0.325354H0.487823C0.401378 0.324734 0.316321 0.347115 0.241363 0.390207C0.166404 0.433298 0.104238 0.495551 0.0612293 0.57059C0.0182206 0.645629 -0.00408478 0.730759 -0.00340279 0.817261C-0.00272079 0.903763 0.0209241 0.98853 0.0651106 1.06288L15.2069 27.2993C16.074 28.8178 17.6998 29.7505 19.434 29.7505H22.0895C23.8237 29.7505 25.4496 28.8069 26.3167 27.2885L37.654 7.67893C38.0907 6.93162 38.32 6.08112 38.3181 5.21542C38.3162 4.34971 38.0832 3.50023 37.6432 2.75485H37.6324ZM54.0314 0.325354H51.3976C49.6417 0.325354 48.0159 1.25811 47.1488 2.77655L45.5989 5.46635C45.4038 5.79173 45.6422 6.20388 46.0216 6.20388H53.4678L60.2529 17.9718H40.548C39.8882 17.9733 39.2404 18.1485 38.6697 18.4797C38.0989 18.811 37.6253 19.2866 37.2963 19.859L32.0179 29.013C31.8228 29.3384 32.0612 29.7397 32.4406 29.7397H36.2125C37.5565 29.7397 38.7921 29.0238 39.4641 27.8633L41.7728 23.8503H63.6563L65.9649 27.8633C66.2952 28.4336 66.7695 28.9071 67.3401 29.2364C67.9108 29.5657 68.5578 29.7393 69.2166 29.7397H72.9885C73.3678 29.7397 73.6063 29.3384 73.422 29.013L58.2802 2.7657C57.4023 1.26895 55.7873 0.325354 54.0314 0.325354ZM98.6872 12.0932H71.2651C71.1777 12.0907 71.0913 12.1116 71.0148 12.1539C70.9383 12.1962 70.8746 12.2583 70.8302 12.3336C70.7859 12.409 70.7627 12.4949 70.7629 12.5824C70.7631 12.6698 70.7868 12.7556 70.8316 12.8308L72.7175 16.0846C73.0465 16.6569 73.5201 17.1326 74.0908 17.4638C74.6616 17.7951 75.3093 17.9703 75.9691 17.9718H97.7117V23.8611H78.0502C77.9628 23.8586 77.8764 23.8795 77.7999 23.9218C77.7234 23.9641 77.6596 24.0262 77.6153 24.1015C77.571 24.1769 77.5478 24.2628 77.548 24.3503C77.5482 24.4377 77.5719 24.5235 77.6166 24.5987L79.5026 27.8525C79.8325 28.4264 80.3078 28.9031 80.8806 29.2344C81.4534 29.5658 82.1034 29.7401 82.7651 29.7397H98.6981C101.408 29.7397 103.597 27.5488 103.597 24.8373V16.9956C103.597 14.2841 101.397 12.0932 98.6872 12.0932ZM91.8588 6.20388C93.593 6.20388 95.2188 5.27112 96.0968 3.75269L97.6576 1.06288C97.8418 0.737501 97.6142 0.325354 97.224 0.325354H70.127C67.2331 0.325354 65.423 3.47069 66.8754 5.96527C66.9172 6.03765 66.9772 6.09778 67.0495 6.13966C67.1217 6.18153 67.2038 6.20368 67.2873 6.20388H91.8588Z" fill="#D60926"/>
<path id="Vector_4" d="M20.0085 23.8612L7.84736 2.77665C6.98026 1.25821 5.35444 0.325452 3.59856 0.325452H0.487823C0.401378 0.324832 0.316321 0.347214 0.241363 0.390305C0.166404 0.433396 0.104238 0.495649 0.0612293 0.570688C0.0182206 0.645728 -0.00408478 0.730857 -0.00340279 0.817359C-0.00272079 0.903861 0.0209241 0.988628 0.0651106 1.06298L15.2069 27.2886C15.5302 27.8517 15.9621 28.345 16.4775 28.7397C16.9929 29.1345 17.5815 29.4228 18.2092 29.5879L21.5151 23.8612H20.0085Z" fill="url(#paint0_linear_140_1214)"/>
<path id="Vector_5" d="M60.2636 17.9717H40.537C39.8772 17.9732 39.2294 18.1484 38.6587 18.4796C38.0879 18.8109 37.6143 19.2866 37.2854 19.8589L32.0069 29.0129C31.8118 29.3383 32.0502 29.7396 32.4296 29.7396H36.2015C37.5455 29.7396 38.7811 29.0237 39.4531 27.8632L41.7618 23.8502H63.6453L60.2419 17.9717H60.2636Z" fill="url(#paint1_linear_140_1214)"/>
<path id="Vector_6" d="M97.7116 23.8611H78.05C77.9627 23.8585 77.8762 23.8794 77.7997 23.9217C77.7232 23.964 77.6595 24.0261 77.6152 24.1014C77.5709 24.1768 77.5476 24.2627 77.5479 24.3502C77.5481 24.4376 77.5718 24.5234 77.6165 24.5986L79.5024 27.8524C79.8323 28.4263 80.3076 28.903 80.8804 29.2343C81.4533 29.5657 82.1033 29.74 82.7649 29.7396H97.7224V23.8611H97.7116Z" fill="url(#paint2_linear_140_1214)"/>
<path id="Vector_7" d="M146.681 23.8612H145.305L133.133 2.77663C132.266 1.25819 130.64 0.325439 128.895 0.325439H127.063V6.20396H128.331L140.492 27.2886C141.359 28.807 142.985 29.7398 144.73 29.7398H146.681V23.8612Z" fill="url(#paint3_linear_140_1214)"/>
</g>
<defs>
<linearGradient id="paint0_linear_140_1214" x1="2.66642" y1="0.119378" x2="19.7431" y2="27.7882" gradientUnits="userSpaceOnUse">
<stop stop-color="#D60926"/>
<stop offset="1" stop-color="#710D20"/>
</linearGradient>
<linearGradient id="paint1_linear_140_1214" x1="31.9527" y1="23.8611" x2="63.6561" y2="23.8611" gradientUnits="userSpaceOnUse">
<stop offset="0.2" stop-color="#D60926"/>
<stop offset="1" stop-color="#710D20"/>
</linearGradient>
<linearGradient id="paint2_linear_140_1214" x1="77.5515" y1="26.8003" x2="97.7116" y2="26.8003" gradientUnits="userSpaceOnUse">
<stop stop-color="#D60926"/>
<stop offset="1" stop-color="#710D20"/>
</linearGradient>
<linearGradient id="paint3_linear_140_1214" x1="131.171" y1="5.66167" x2="146.566" y2="30.9129" gradientUnits="userSpaceOnUse">
<stop stop-color="#D60926"/>
<stop offset="1" stop-color="#710D20"/>
</linearGradient>
<clipPath id="clip0_140_1214">
<rect width="233.5" height="30" fill="white"/>
</clipPath>
</defs>
</svg>
