<svg width="24" height="24" viewBox="0 0 24 24" fill="none" xmlns="http://www.w3.org/2000/svg">
<g id="instagram-svgrepo-com (1) 1">
<path id="Vector" fill-rule="evenodd" clip-rule="evenodd" d="M12 3C9.55576 3 9.24926 3.01036 8.28932 3.05416C7.33137 3.09785 6.67713 3.25001 6.10466 3.47251C5.51283 3.70247 5.01092 4.01022 4.51055 4.51055C4.01021 5.01092 3.70247 5.51283 3.47251 6.10466C3.25001 6.67713 3.09785 7.33138 3.05416 8.28932C3.01036 9.24927 3 9.55576 3 12.0001C3 14.4443 3.01036 14.7507 3.05416 15.7107C3.09785 16.6687 3.25001 17.3229 3.47251 17.8954C3.70247 18.4872 4.01021 18.9891 4.51055 19.4895C5.01092 19.9898 5.51283 20.2976 6.10466 20.5276C6.67713 20.75 7.33137 20.9022 8.28932 20.9459C9.24926 20.9896 9.55576 21 12 21C14.4443 21 14.7507 20.9896 15.7107 20.9459C16.6687 20.9022 17.3229 20.75 17.8954 20.5276C18.4872 20.2976 18.9891 19.9898 19.4895 19.4895C19.9898 18.9891 20.2976 18.4872 20.5276 17.8954C20.75 17.3229 20.9022 16.6687 20.9458 15.7107C20.9896 14.7507 21 14.4443 21 12.0001C21 9.55576 20.9896 9.24927 20.9458 8.28932C20.9022 7.33138 20.75 6.67713 20.5276 6.10466C20.2976 5.51283 19.9898 5.01092 19.4895 4.51055C18.9891 4.01022 18.4872 3.70247 17.8954 3.47251C17.3229 3.25001 16.6687 3.09785 15.7107 3.05416C14.7507 3.01036 14.4443 3 12 3ZM9.00001 12.0001C9.00001 13.6569 10.3431 15 12 15C13.6569 15 15.0001 13.6569 15.0001 12.0001C15.0001 10.3431 13.6569 9.00001 12 9.00001C10.3431 9.00001 9.00001 10.3431 9.00001 12.0001ZM7.37839 12.0001C7.37839 9.44754 9.44754 7.37839 12 7.37839C14.5525 7.37839 16.6216 9.44754 16.6216 12.0001C16.6216 14.5525 14.5525 16.6216 12 16.6216C9.44754 16.6216 7.37839 14.5525 7.37839 12.0001ZM16.8042 8.27578C17.4007 8.27578 17.8843 7.79227 17.8843 7.19579C17.8843 6.59932 17.4007 6.11577 16.8042 6.11577C16.2078 6.11577 15.7243 6.59932 15.7243 7.19579C15.7243 7.79227 16.2078 8.27578 16.8042 8.27578Z" fill="white"/>
</g>
</svg>
