<svg width="234" height="30" viewBox="0 0 234 30" fill="none" xmlns="http://www.w3.org/2000/svg">
<g id="logo (8) 1" clip-path="url(#clip0_140_894)">
<path id="Vector" d="M25.5144 21.8115L26.5766 21.1933L25.5144 21.8115ZM140.644 22.9286L141.717 22.3213L140.644 22.9286ZM43.7886 15.2171L42.7264 14.5989L43.7886 15.2171ZM52.2212 23.8397L51.1481 23.2215L52.2212 23.8397ZM120.191 4.62061V5.8462V4.62061ZM103.749 5.8462V4.62061V5.8462Z" fill="#D60926"/>
<path id="Vector_2" d="M165.779 0.32538H161.357V13.1562H165.779C169.833 13.1562 171.784 11.6594 171.784 6.69197C171.784 1.71367 169.811 0.314534 165.779 0.314534V0.32538ZM165.671 11.551H163.221V1.91974H165.671C168.727 1.91974 169.79 2.58135 169.79 6.71367C169.79 10.6291 168.727 11.551 165.671 11.551ZM180.878 7.50542C183.566 7.46204 184.411 5.85683 184.411 4.0564C184.411 2.0282 183.598 0.314534 180.813 0.314534H174.613V13.1562H176.477V7.91757H178.569C179.469 7.91757 180.91 9.58785 182.937 13.1453H185.267C183.176 9.65293 181.777 7.80911 180.878 7.50542ZM176.477 6.3449V1.89805H180.52C181.68 1.89805 182.33 2.6898 182.33 4.18655C182.33 5.55314 181.669 6.3449 180.455 6.3449H176.477ZM189.191 13.1562H187.338V0.314534H189.191V13.1562ZM197.971 13.1562H195.543C194.242 8.95879 192.378 3.81779 190.795 0.314534H192.898C194.199 3.44902 195.781 7.75488 196.865 11.4208C198.361 7.84165 199.683 3.89371 200.789 0.314534H202.74C201.439 4.39262 199.705 9.09978 197.971 13.1562ZM206.392 13.1562H204.528V0.314534H206.381V13.1562H206.392ZM211.703 13.1562H209.861V0.314534H212.354C214.435 3.49241 216.472 6.98482 218.337 10.3796V0.314534H220.212V13.1562H217.936C215.981 9.5566 213.902 6.02592 211.703 2.5705V13.1562ZM228.969 13.4165C224.937 13.4165 223.03 11.8438 223.03 6.61605C223.03 1.36659 225.068 0 229.143 0C230.303 0 231.885 0.21692 232.871 0.488069L232.416 2.13666C231.679 1.86551 230.183 1.70282 229.251 1.70282C226.173 1.70282 225.057 2.3102 225.057 6.63774C225.057 10.9436 226.173 11.7137 229.197 11.7137C229.988 11.7137 230.823 11.5835 231.311 11.4751V7.51627H228.232V5.96529H233.207V12.9501C232.199 13.2538 230.281 13.4273 228.98 13.4273L228.969 13.4165ZM170.061 26.0954C170.061 28.9696 168.11 30 164.706 30C163.416 30 161.888 29.7831 160.88 29.4469L161.335 27.82C162.127 28.0803 163.525 28.2863 164.674 28.2863C166.82 28.2863 168.077 27.82 168.077 26.1822C168.077 25.0651 167.481 24.2516 164.977 24.0347C162.018 23.7961 160.653 22.9284 160.653 20.564C160.653 17.679 162.604 16.5944 165.974 16.5944C167.232 16.5944 168.695 16.8113 169.692 17.1258L169.259 18.7527C168.587 18.5033 167.156 18.2972 165.974 18.2972C163.818 18.2972 162.658 18.7852 162.658 20.4013C162.658 21.5293 163.265 22.115 165.693 22.321C168.717 22.5922 170.061 23.6985 170.061 26.0954ZM174.179 23.2213C174.179 27.5271 175.307 28.2646 178.331 28.2646C179.263 28.2646 180.531 28.102 181.268 27.8417L181.734 29.5228C180.737 29.8156 179.263 30 178.103 30C174.071 30 172.163 28.4273 172.163 23.1996C172.163 17.9501 174.071 16.5835 178.103 16.5835C179.263 16.5835 180.759 16.8004 181.734 17.0716L181.268 18.7419C180.531 18.4707 179.263 18.308 178.331 18.308C175.307 18.308 174.179 18.8937 174.179 23.2213ZM191.836 16.898H193.689V29.7397H191.836V23.7527H185.69V29.7397H183.826V16.898H185.69V22.039H191.836V16.898ZM202.458 16.5835C198.426 16.5835 196.496 18.0043 196.496 23.2321C196.496 28.5249 198.426 30 202.458 30C206.512 30 208.419 28.5249 208.419 23.2321C208.419 18.0043 206.49 16.5835 202.458 16.5835ZM202.458 28.3189C199.423 28.3189 198.523 27.4403 198.523 23.2755C198.523 18.9696 199.423 18.2429 202.458 18.2429C205.514 18.2429 206.436 18.9696 206.436 23.2755C206.436 27.4403 205.514 28.3189 202.458 28.3189ZM216.516 16.5944C212.484 16.5944 210.554 18.0152 210.554 23.243C210.554 28.5358 212.484 30.0108 216.516 30.0108C220.559 30.0108 222.477 28.5358 222.477 23.243C222.477 18.0152 220.537 16.5944 216.516 16.5944ZM216.516 28.3297C213.481 28.3297 212.57 27.4512 212.57 23.2863C212.57 18.9805 213.47 18.2538 216.505 18.2538C219.561 18.2538 220.483 18.9805 220.483 23.2863C220.483 27.4512 219.561 28.3297 216.505 28.3297H216.516ZM233.5 28.1128V29.7397H225.295V16.9089H227.149V28.1128H233.5Z" fill="#24303B"/>
<path id="Vector_3" d="M110.415 0.325598H107.77C106.911 0.327535 106.068 0.554917 105.324 0.98504C104.58 1.41516 103.963 2.03298 103.532 2.77679L101.971 5.4666C101.787 5.79198 102.015 6.20412 102.405 6.20412H109.428V29.2518C109.428 29.523 109.645 29.7399 109.916 29.7399H111.542C112.037 29.7413 112.527 29.645 112.985 29.4566C113.442 29.2681 113.858 28.9911 114.209 28.6414C114.559 28.2918 114.837 27.8764 115.027 27.4191C115.216 26.9618 115.314 26.4715 115.314 25.9764V5.22798C115.314 2.51649 113.114 0.325598 110.415 0.325598ZM146.681 0.813667V23.8614H145.305L133.133 2.77679C132.266 1.25835 130.64 0.325598 128.895 0.325598H126.088C123.378 0.325598 121.189 2.51649 121.189 5.22798V29.2518C121.189 29.523 121.405 29.7508 121.676 29.7508H123.302C123.798 29.7522 124.289 29.6555 124.747 29.4664C125.206 29.2772 125.622 28.9992 125.972 28.6485C126.323 28.2977 126.601 27.881 126.79 27.4225C126.979 26.9639 127.075 26.4724 127.074 25.9764V6.20412H128.331L140.492 27.2887C141.36 28.8072 142.985 29.7399 144.741 29.7399H147.668C150.377 29.7399 152.567 27.549 152.567 24.8375V4.08916C152.567 3.091 152.171 2.13372 151.465 1.42792C150.76 0.722114 149.803 0.325598 148.806 0.325598H147.18C146.909 0.325598 146.681 0.542518 146.681 0.813667ZM37.6324 2.7551C37.179 2.00433 36.5374 1.38518 35.7712 0.959019C35.005 0.532861 34.1408 0.314505 33.2643 0.325598H27.4656C26.6048 0.325637 25.7591 0.552119 25.0134 0.982336C24.2677 1.41255 23.6481 2.03139 23.2168 2.77679L21.6777 5.4666C21.4826 5.79198 21.721 6.20412 22.1004 6.20412H31.7144L21.5259 23.8614H20.0193L7.84736 2.77679C6.98026 1.25835 5.35444 0.325598 3.59856 0.325598H0.487823C0.401378 0.324978 0.316321 0.34736 0.241363 0.390451C0.166404 0.433542 0.104238 0.495795 0.0612293 0.570834C0.0182206 0.645874 -0.00408478 0.731003 -0.00340279 0.817505C-0.00272079 0.904007 0.0209241 0.988774 0.0651106 1.06313L15.2069 27.2996C16.074 28.818 17.6998 29.7508 19.434 29.7508H22.0895C23.8237 29.7508 25.4496 28.8072 26.3167 27.2887L37.654 7.67918C38.0907 6.93186 38.32 6.08137 38.3181 5.21566C38.3162 4.34996 38.0832 3.50048 37.6432 2.7551H37.6324ZM54.0314 0.325598H51.3976C49.6417 0.325598 48.0159 1.25835 47.1488 2.77679L45.5989 5.4666C45.4038 5.79198 45.6422 6.20412 46.0216 6.20412H53.4678L60.2529 17.972H40.548C39.8882 17.9735 39.2404 18.1487 38.6697 18.48C38.0989 18.8112 37.6253 19.2869 37.2963 19.8592L32.0179 29.0132C31.8228 29.3386 32.0612 29.7399 32.4406 29.7399H36.2125C37.5565 29.7399 38.7921 29.0241 39.4641 27.8636L41.7728 23.8505H63.6563L65.9649 27.8636C66.2952 28.4339 66.7695 28.9074 67.3401 29.2367C67.9108 29.566 68.5578 29.7395 69.2166 29.7399H72.9885C73.3678 29.7399 73.6063 29.3386 73.422 29.0132L58.2802 2.76594C57.4023 1.2692 55.7873 0.325598 54.0314 0.325598ZM98.6872 12.0935H71.2651C71.1777 12.0909 71.0913 12.1118 71.0148 12.1541C70.9383 12.1964 70.8746 12.2585 70.8302 12.3339C70.7859 12.4093 70.7627 12.4952 70.7629 12.5826C70.7631 12.6701 70.7868 12.7559 70.8316 12.831L72.7175 16.0848C73.0465 16.6571 73.5201 17.1328 74.0908 17.4641C74.6616 17.7953 75.3093 17.9705 75.9691 17.972H97.7117V23.8614H78.0502C77.9628 23.8588 77.8764 23.8797 77.7999 23.922C77.7234 23.9643 77.6596 24.0264 77.6153 24.1018C77.571 24.1772 77.5478 24.2631 77.548 24.3505C77.5482 24.438 77.5719 24.5238 77.6166 24.5989L79.5026 27.8527C79.8325 28.4266 80.3078 28.9033 80.8806 29.2347C81.4534 29.566 82.1034 29.7403 82.7651 29.7399H98.6981C101.408 29.7399 103.597 27.549 103.597 24.8375V16.9959C103.597 14.2844 101.397 12.0935 98.6872 12.0935ZM91.8588 6.20412C93.593 6.20412 95.2188 5.27137 96.0968 3.75293L97.6576 1.06313C97.8418 0.737745 97.6142 0.325598 97.224 0.325598H70.127C67.2331 0.325598 65.423 3.47093 66.8754 5.96551C66.9172 6.03789 66.9772 6.09803 67.0495 6.1399C67.1217 6.18178 67.2038 6.20392 67.2873 6.20412H91.8588Z" fill="#D60926"/>
<path id="Vector_4" d="M20.0085 23.861L7.84736 2.7764C6.98026 1.25796 5.35444 0.325208 3.59856 0.325208H0.487823C0.401378 0.324588 0.316321 0.34697 0.241363 0.390061C0.166404 0.433152 0.104238 0.495405 0.0612293 0.570444C0.0182206 0.645484 -0.00408478 0.730613 -0.00340279 0.817115C-0.00272079 0.903617 0.0209241 0.988384 0.0651106 1.06273L15.2069 27.2883C15.5302 27.8515 15.9621 28.3448 16.4775 28.7395C16.9929 29.1342 17.5815 29.4225 18.2092 29.5877L21.5151 23.861H20.0085Z" fill="url(#paint0_linear_140_894)"/>
<path id="Vector_5" d="M60.2636 17.9717H40.537C39.8772 17.9732 39.2294 18.1484 38.6587 18.4796C38.0879 18.8109 37.6143 19.2866 37.2854 19.8589L32.0069 29.0129C31.8118 29.3383 32.0502 29.7396 32.4296 29.7396H36.2015C37.5455 29.7396 38.7811 29.0237 39.4531 27.8632L41.7618 23.8502H63.6453L60.2419 17.9717H60.2636Z" fill="url(#paint1_linear_140_894)"/>
<path id="Vector_6" d="M97.7116 23.8611H78.05C77.9627 23.8585 77.8762 23.8794 77.7997 23.9217C77.7232 23.964 77.6595 24.0261 77.6152 24.1014C77.5709 24.1768 77.5476 24.2627 77.5479 24.3502C77.5481 24.4376 77.5718 24.5234 77.6165 24.5986L79.5024 27.8524C79.8323 28.4263 80.3076 28.903 80.8804 29.2343C81.4533 29.5657 82.1033 29.74 82.7649 29.7396H97.7224V23.8611H97.7116Z" fill="url(#paint2_linear_140_894)"/>
<path id="Vector_7" d="M146.681 23.861H145.305L133.133 2.77639C132.266 1.25795 130.64 0.325195 128.895 0.325195H127.063V6.20372H128.331L140.492 27.2883C141.359 28.8068 142.985 29.7395 144.73 29.7395H146.681V23.861Z" fill="url(#paint3_linear_140_894)"/>
</g>
<defs>
<linearGradient id="paint0_linear_140_894" x1="2.66642" y1="0.119134" x2="19.7431" y2="27.788" gradientUnits="userSpaceOnUse">
<stop stop-color="#D60926"/>
<stop offset="1" stop-color="#710D20"/>
</linearGradient>
<linearGradient id="paint1_linear_140_894" x1="31.9527" y1="23.8611" x2="63.6561" y2="23.8611" gradientUnits="userSpaceOnUse">
<stop offset="0.2" stop-color="#D60926"/>
<stop offset="1" stop-color="#710D20"/>
</linearGradient>
<linearGradient id="paint2_linear_140_894" x1="77.5515" y1="26.8003" x2="97.7116" y2="26.8003" gradientUnits="userSpaceOnUse">
<stop stop-color="#D60926"/>
<stop offset="1" stop-color="#710D20"/>
</linearGradient>
<linearGradient id="paint3_linear_140_894" x1="131.171" y1="5.66142" x2="146.566" y2="30.9126" gradientUnits="userSpaceOnUse">
<stop stop-color="#D60926"/>
<stop offset="1" stop-color="#710D20"/>
</linearGradient>
<clipPath id="clip0_140_894">
<rect width="233.5" height="30" fill="white"/>
</clipPath>
</defs>
</svg>
