<svg width="24" height="24" viewBox="0 0 24 24" fill="none" xmlns="http://www.w3.org/2000/svg">
<g id="telegram-alt-svgrepo-com 1" clip-path="url(#clip0_354_77)">
<path id="Vector" d="M19.2 4.4L2.89997 10.7C1.79997 11.1 1.79997 11.8 2.69997 12L6.79997 13.3L8.39997 18.1C8.59997 18.6 8.49997 18.8 8.99997 18.8C9.39997 18.8 9.59997 18.6 9.79997 18.4C9.89997 18.3 10.8 17.4 11.8 16.4L16 19.5C16.8 19.9 17.3 19.7 17.5 18.8L20.3 5.7C20.6 4.6 19.9 4 19.2 4.4ZM17.1 7.4L9.29997 14.5L8.99997 17.8L7.39997 13L16.6 7.2C17 6.9 17.4 7.1 17.1 7.4Z" fill="white"/>
</g>
<defs>
<clipPath id="clip0_354_77">
<rect width="24" height="24" fill="white"/>
</clipPath>
</defs>
</svg>
