<svg width="24" height="24" viewBox="0 0 24 24" fill="none" xmlns="http://www.w3.org/2000/svg">
<g id="vk-svgrepo-com 2">
<path id="Vector" d="M14.4184 11.8125C14.0434 11.6715 14.0434 11.133 14.0201 10.758C13.9264 9.42225 14.3951 7.383 13.8326 6.516C13.4344 6 11.5121 6.04725 10.3406 6.11775C10.0121 6.165 9.61388 6.23475 9.33263 6.37575C9.05138 6.51675 8.77013 6.75075 8.77013 6.9615C8.77013 7.266 9.47363 7.2195 9.73088 7.61775C10.0121 8.04 10.0121 8.9535 10.0121 9.7035C10.0121 10.5705 9.87113 11.7195 9.52013 11.766C8.98088 11.7892 8.67638 11.25 8.39513 10.8517C7.83263 10.0785 7.27013 9.117 6.84788 8.1795C6.63713 7.6875 6.51938 7.14825 6.21488 6.9375C5.74613 6.609 4.90238 6.58575 4.08188 6.609C3.33188 6.63225 2.25338 6.5385 2.04263 6.984C1.87838 7.476 2.23013 7.94475 2.41763 8.34375C3.37838 10.4295 4.40963 12.258 5.67563 13.992C6.84788 15.609 7.94888 16.8982 10.1051 17.5777C10.7149 17.7652 13.3864 18.3045 13.9256 17.5777C14.1131 17.2965 14.0666 16.6635 14.1604 16.1947C14.2541 15.726 14.3711 15.2572 14.8166 15.234C15.1916 15.2107 15.4024 15.5385 15.6371 15.7732C15.8951 16.0312 16.1059 16.242 16.2934 16.4767C16.7389 16.9222 17.2076 17.5312 17.7701 17.766C18.5434 18.0945 19.7389 18.0007 20.8639 17.9535C21.7781 17.9302 22.4344 17.7427 22.5049 17.2035C22.5521 16.7812 22.0826 16.1722 21.8014 15.8205C21.0979 14.9535 20.7701 14.6955 19.9729 13.8982C19.6211 13.5465 19.1756 13.1715 19.1756 12.75C19.1524 12.492 19.3631 12.258 19.5506 12C20.3711 10.7812 21.1916 9.91425 21.9416 8.64825C22.1524 8.27325 22.6451 7.40625 22.4576 6.984C22.2469 6.51525 21.0746 6.6555 20.3479 6.6555C19.4104 6.6555 18.1916 6.585 17.9569 6.7725C17.5114 7.077 17.3239 7.56975 17.1131 8.0385C16.6444 9.117 16.0114 10.218 15.3551 11.0385C15.1204 11.3197 14.6756 11.9055 14.4176 11.8117L14.4184 11.8125Z" fill="white"/>
</g>
</svg>
