<svg width="24" height="24" viewBox="0 0 24 24" fill="none" xmlns="http://www.w3.org/2000/svg">
<g id="yt" clip-path="url(#clip0_354_80)">
<g id="Group">
<g id="Group_2">
<path id="Subtract" fill-rule="evenodd" clip-rule="evenodd" d="M20.2601 5.44207C21.1703 5.68574 21.8857 6.40106 22.1294 7.31132C22.5697 8.95952 22.5715 12.4004 22.5715 12.4004C22.5715 12.4004 22.5715 15.8413 22.1294 17.4895C21.8857 18.3997 21.1703 19.1151 20.2601 19.3587C18.612 19.8008 11.9999 19.8008 11.9999 19.8008C11.9999 19.8008 5.38799 19.8008 3.73978 19.3587C2.82953 19.1151 2.1142 18.3997 1.87054 17.4895C1.42847 15.8413 1.42847 12.4004 1.42847 12.4004C1.42847 12.4004 1.42847 8.95952 1.87054 7.31132C2.1142 6.40106 2.82953 5.68574 3.73978 5.44207C5.38799 5 11.9999 5 11.9999 5C11.9999 5 18.612 5 20.2601 5.44207ZM15.3763 12.4008L9.88339 15.5719V9.22972L15.3763 12.4008Z" fill="white"/>
</g>
</g>
</g>
<defs>
<clipPath id="clip0_354_80">
<rect width="24" height="24" fill="white"/>
</clipPath>
</defs>
</svg>
